<?xml version="1.0" standalone="no"?>
<!DOCTYPE svg PUBLIC "-//W3C//DTD SVG 20010904//EN"
 "http://www.w3.org/TR/2001/REC-SVG-20010904/DTD/svg10.dtd">
<svg version="1.0" xmlns="http://www.w3.org/2000/svg"
 width="1280.000000pt" height="640.000000pt" viewBox="0 0 1280.000000 640.000000"
 preserveAspectRatio="xMidYMid meet">
<metadata>
Created by potrace 1.15, written by Peter Selinger 2001-2017
</metadata>
<g transform="translate(0.000000,640.000000) scale(0.100000,-0.100000)"
fill="#009688" stroke="none">
<path d="M2563 6188 c-14 -16 -31 -68 -53 -163 -40 -177 -102 -366 -124 -380
-39 -23 -49 23 -66 305 -5 87 -14 161 -23 182 -17 40 -50 54 -92 38 -49 -19
-55 -54 -55 -340 0 -184 -3 -260 -11 -260 -25 0 -83 82 -144 201 -35 69 -70
131 -78 137 -8 7 -27 15 -44 18 -44 9 -56 -13 -51 -89 3 -51 13 -82 51 -158
75 -149 90 -253 62 -424 -18 -109 -19 -215 -1 -313 11 -68 11 -80 -10 -163
-13 -49 -45 -145 -73 -212 -27 -67 -76 -187 -109 -267 -33 -80 -62 -154 -66
-164 -6 -19 -7 -19 -22 2 -17 24 -44 28 -62 10 -17 -17 -27 -2 -41 56 -20 82
-100 221 -117 203 -4 -4 8 -71 28 -150 l35 -142 -66 -8 c-36 -4 -113 -18 -171
-30 -66 -14 -135 -21 -185 -20 -80 2 -439 1 -675 -1 -69 -1 -187 3 -262 7
l-138 8 0 -47 0 -47 163 9 c194 10 249 10 517 -1 141 -5 238 -4 312 4 101 11
115 10 225 -13 65 -13 140 -27 166 -31 31 -4 47 -11 44 -18 -3 -7 -32 -59 -65
-117 -34 -57 -59 -106 -57 -108 2 -3 20 6 39 17 45 28 109 101 144 164 l27 48
45 -6 c25 -4 46 -8 48 -10 1 -1 -2 -14 -7 -28 -12 -30 -54 -230 -71 -336 l-12
-74 -31 49 c-27 42 -32 46 -35 27 -2 -13 4 -67 12 -122 9 -54 16 -103 16 -110
0 -7 -19 -11 -47 -11 -27 0 -115 -14 -197 -30 -140 -29 -153 -30 -235 -19 -59
8 -157 9 -311 4 -299 -10 -318 -10 -517 0 l-173 8 0 -43 0 -43 183 8 c100 4
198 7 217 7 19 0 152 -4 295 -8 169 -4 284 -3 328 4 61 10 81 8 178 -14 60
-13 136 -27 170 -31 38 -4 58 -10 55 -17 -2 -6 -23 -53 -45 -104 -23 -51 -41
-98 -41 -105 0 -6 19 7 43 29 23 22 55 51 71 64 l29 25 -7 -110 c-11 -187 -17
-224 -32 -218 -18 7 -18 -12 1 -84 11 -42 14 -80 9 -136 -6 -71 -9 -78 -31
-83 -13 -4 -26 -4 -28 -2 -3 3 -6 90 -8 194 -1 132 -6 196 -15 212 -21 36 -57
55 -92 47 -26 -6 -32 -14 -45 -58 -8 -29 -19 -135 -25 -236 -5 -102 -13 -188
-17 -192 -5 -4 -21 -9 -37 -11 -29 -3 -30 -1 -62 95 -18 54 -47 159 -64 233
-17 74 -35 145 -40 158 -21 56 -91 60 -126 9 -46 -68 -40 -160 21 -367 19 -66
33 -121 31 -124 -3 -2 -22 0 -43 4 -37 9 -40 13 -125 179 -108 211 -142 244
-207 199 -22 -16 -23 -22 -19 -93 4 -74 19 -113 106 -283 2 -5 -20 -8 -50 -9
-29 0 -80 -4 -113 -9 -33 -4 -94 -4 -135 0 -41 5 -132 11 -203 15 l-127 6 0
-46 0 -45 83 0 c45 0 134 5 197 11 129 12 386 -3 407 -24 6 -7 23 -41 38 -76
63 -152 32 -341 -55 -341 -17 0 -77 26 -142 62 -145 80 -213 107 -265 108 -46
0 -93 -15 -105 -33 -27 -42 10 -86 118 -140 39 -20 84 -47 100 -60 16 -13 88
-67 161 -119 l131 -95 -141 -11 c-97 -8 -172 -9 -237 -2 -52 5 -139 10 -192
10 l-98 0 0 -42 0 -41 183 8 c224 9 212 9 432 0 139 -6 188 -12 215 -25 19 -9
66 -27 103 -40 97 -32 125 -63 165 -186 46 -141 69 -259 83 -417 9 -107 9
-141 0 -150 -8 -8 -42 -11 -94 -10 -86 2 -490 1 -687 -1 -63 0 -179 3 -257 7
l-143 9 0 -48 0 -47 163 9 c195 10 253 10 512 -1 140 -5 235 -4 317 4 84 9
127 9 156 2 l39 -11 12 -127 c6 -71 19 -162 29 -203 l17 -75 450 -3 c247 -1
452 1 456 5 4 5 11 99 15 211 l7 202 27 0 c15 0 42 -3 60 -7 l33 -6 -7 -96
c-3 -53 -9 -144 -12 -203 l-7 -108 400 0 400 0 6 83 c4 45 7 114 7 152 0 39 3
93 6 121 l6 51 217 9 c237 9 482 8 492 -4 4 -4 12 -63 18 -132 6 -69 19 -159
29 -200 l17 -75 383 -3 c371 -2 382 -2 382 17 0 11 -7 54 -15 96 l-14 76 37
48 c20 26 46 64 57 84 14 27 26 37 44 37 l24 0 -4 -177 -4 -178 379 -3 c209
-1 383 1 387 5 4 5 11 97 15 206 5 143 10 197 19 197 13 0 25 -110 25 -235 0
-38 3 -94 6 -122 l7 -53 757 0 757 0 6 98 c4 53 7 129 7 167 0 39 3 86 6 107
l6 36 127 4 c69 2 127 3 129 2 2 -1 -6 -37 -17 -80 -22 -89 -61 -290 -61 -317
0 -16 23 -17 382 -15 l383 3 17 70 c9 39 17 72 17 74 1 2 10 -7 22 -20 l20
-24 -5 55 c-3 30 -9 89 -12 131 l-7 76 63 6 c35 4 65 6 66 4 2 -2 -1 -61 -6
-133 -5 -71 -10 -155 -10 -186 l0 -58 612 0 611 0 -7 204 -6 203 222 7 c123 3
259 9 304 12 l80 6 12 -138 c6 -77 20 -173 30 -214 l17 -75 383 -3 c374 -2
382 -2 382 17 0 38 -52 291 -77 375 -4 15 -2 18 12 12 10 -3 61 -13 114 -22
52 -8 97 -17 99 -19 2 -2 -26 -54 -62 -116 -35 -63 -63 -115 -61 -117 2 -3 20
6 39 17 44 28 109 101 144 162 l26 48 60 -3 61 -3 11 -55 c6 -30 18 -65 27
-79 11 -14 17 -43 17 -75 0 -28 3 -72 6 -98 l7 -46 674 0 673 0 -6 205 -7 205
81 0 82 0 0 46 0 46 -82 -3 -83 -4 -11 315 c-7 173 -12 357 -13 408 l-1 92 95
0 95 0 0 40 0 40 -94 0 c-82 0 -95 2 -100 18 -2 9 -7 143 -11 297 -3 154 -8
306 -11 338 l-6 57 111 0 111 0 0 46 0 46 -109 -7 -109 -7 -6 163 c-6 144 -19
402 -30 597 l-4 62 129 0 129 0 0 41 0 40 -132 -2 -133 -2 -3 34 c-13 162 -64
450 -106 604 -14 49 -24 91 -22 93 2 1 57 -2 122 -7 66 -6 154 -11 197 -11
l77 0 0 46 0 47 -87 -6 c-49 -4 -143 -9 -209 -13 l-122 -7 -7 24 c-17 58 -79
217 -148 380 -134 314 -140 344 -122 585 6 88 4 135 -10 225 -27 176 -7 295
73 438 29 52 36 77 40 135 5 83 -7 102 -57 91 -40 -9 -51 -23 -115 -156 -53
-109 -118 -199 -144 -199 -9 0 -12 70 -12 260 0 287 -6 321 -56 340 -43 17
-77 0 -93 -46 -7 -21 -17 -111 -22 -199 -13 -239 -26 -296 -62 -282 -21 8 -82
189 -123 367 -38 164 -57 200 -101 200 -38 0 -59 -16 -77 -60 -29 -73 -17
-188 35 -347 30 -93 57 -213 48 -213 -29 0 -97 97 -174 251 -47 93 -99 185
-116 204 -38 43 -75 46 -109 10 -20 -22 -22 -31 -17 -84 9 -81 35 -145 118
-291 95 -167 121 -237 122 -325 2 -113 -34 -185 -93 -185 -18 0 -77 27 -152
70 -140 80 -209 104 -279 98 -60 -6 -79 -21 -79 -64 0 -39 28 -63 130 -114 36
-18 115 -70 175 -115 61 -45 148 -108 195 -139 47 -31 104 -70 126 -86 23 -17
73 -41 111 -54 87 -29 122 -48 150 -78 25 -26 84 -196 107 -308 18 -86 42
-317 34 -325 -3 -3 -45 4 -94 15 -49 12 -117 24 -151 27 -35 3 -63 7 -63 9 0
2 20 49 45 106 25 56 44 106 43 110 -2 5 -32 -17 -67 -48 -44 -40 -70 -74 -87
-113 l-25 -56 -20 28 c-22 29 -47 35 -67 15 -17 -17 -27 -2 -41 56 -20 82
-100 221 -117 203 -4 -4 8 -71 28 -150 l35 -142 -66 -8 c-36 -4 -113 -18 -171
-30 -66 -14 -135 -21 -185 -20 -44 1 -186 1 -315 1 -129 -1 -292 -1 -362 -1
-537 2 -671 1 -731 0 l-68 -2 -48 125 c-27 69 -78 196 -115 283 -86 203 -127
329 -129 392 -1 28 4 95 10 150 8 67 9 123 2 170 -33 255 -22 351 56 510 52
106 66 181 41 220 -18 28 -33 31 -71 13 -19 -9 -44 -47 -95 -147 -45 -89 -83
-150 -109 -176 -27 -26 -42 -34 -43 -25 -1 8 -2 132 -2 275 -1 231 -3 264 -18
288 -24 36 -50 48 -87 41 -27 -6 -33 -13 -46 -58 -8 -29 -19 -128 -25 -221 -5
-94 -12 -185 -16 -202 -7 -35 -26 -57 -45 -51 -19 6 -67 151 -110 328 -51 209
-47 197 -72 220 -48 45 -105 12 -128 -74 -15 -54 0 -168 40 -296 39 -126 63
-221 57 -227 -2 -2 -22 12 -45 32 -30 27 -64 83 -131 215 -50 99 -104 193
-120 210 -32 34 -64 38 -99 14 -22 -16 -23 -22 -19 -94 5 -86 25 -136 137
-335 97 -173 121 -284 86 -386 -20 -57 -42 -79 -76 -79 -16 0 -78 27 -141 62
-145 80 -213 107 -265 108 -46 0 -93 -15 -105 -33 -27 -42 10 -86 112 -137 36
-18 123 -76 195 -130 134 -100 228 -165 280 -194 17 -9 45 -28 63 -41 18 -13
69 -36 112 -50 44 -15 92 -39 108 -53 65 -61 141 -350 155 -591 l3 -63 -30 5
c-17 3 -74 15 -126 26 -52 11 -112 21 -132 21 -21 0 -38 2 -38 5 0 2 20 50 45
107 25 56 44 106 43 110 -2 5 -32 -17 -67 -48 -44 -40 -70 -74 -87 -113 l-25
-56 -20 28 c-22 29 -47 35 -67 15 -17 -17 -27 -2 -41 56 -20 82 -100 221 -117
203 -4 -4 5 -58 21 -120 15 -61 31 -126 35 -143 l7 -31 -96 -11 c-54 -7 -140
-21 -191 -33 -89 -21 -102 -21 -256 -10 -127 10 -204 10 -355 1 -151 -10 -239
-10 -400 0 -160 9 -247 9 -390 0 -111 -7 -245 -9 -337 -5 l-154 8 7 91 c9 122
38 270 75 387 50 154 72 179 200 220 80 25 378 220 508 331 18 16 65 44 105
64 109 55 137 79 137 118 0 44 -20 58 -83 64 -69 5 -138 -19 -282 -102 -124
-72 -159 -80 -192 -43 -29 32 -32 40 -44 100 -19 105 9 185 151 442 88 158
113 280 67 323 -35 33 -70 28 -106 -13 -17 -19 -69 -112 -117 -205 -79 -158
-143 -250 -172 -250 -10 0 32 176 58 245 42 111 52 263 20 324 -20 40 -36 51
-74 51 -43 0 -62 -38 -101 -205 -44 -187 -96 -346 -119 -360 -38 -23 -50 32
-65 285 -5 85 -15 173 -23 194 -15 46 -49 63 -92 46 -50 -19 -56 -53 -56 -340
0 -184 -3 -260 -11 -260 -25 0 -83 82 -144 201 -35 69 -70 131 -78 137 -25 21
-72 25 -86 8 -27 -33 -10 -133 41 -236 75 -154 90 -251 64 -412 -19 -117 -20
-239 -3 -329 20 -102 -3 -189 -138 -509 -45 -107 -93 -225 -106 -262 -23 -65
-25 -68 -56 -68 -18 0 -33 2 -33 5 0 2 20 50 45 107 25 56 44 106 43 110 -2 5
-32 -17 -67 -48 -44 -40 -70 -74 -87 -113 l-25 -56 -20 28 c-22 29 -47 35 -67
15 -17 -17 -27 -2 -41 56 -20 82 -100 221 -117 203 -4 -4 5 -58 21 -120 15
-61 31 -126 35 -143 l7 -31 -96 -11 c-54 -7 -140 -21 -191 -33 -89 -21 -102
-21 -256 -10 -127 10 -204 10 -355 1 -151 -10 -239 -10 -399 0 -161 9 -248 9
-396 0 -149 -10 -238 -9 -423 1 l-233 12 7 81 c21 252 98 510 166 559 14 10
61 31 105 46 83 29 264 145 462 294 53 40 134 93 179 116 92 48 116 69 116
107 0 38 -25 57 -85 62 -70 5 -138 -19 -283 -102 -124 -72 -159 -80 -192 -43
-29 32 -32 40 -44 100 -14 78 8 175 64 280 24 45 67 125 95 177 53 98 82 188
82 250 0 43 -33 80 -72 80 -41 0 -79 -53 -174 -240 -79 -157 -143 -250 -171
-250 -12 0 15 111 62 260 28 90 42 214 31 273 -14 76 -89 113 -133 65z m-1053
-2123 c0 -3 -12 -24 -26 -46 l-25 -41 -62 7 c-34 4 -93 14 -132 22 l-70 16 60
14 c99 23 255 40 255 28z m3200 0 c0 -3 -12 -24 -27 -46 l-27 -41 -60 7 c-34
4 -92 14 -131 22 l-70 16 60 14 c99 23 255 40 255 28z m310 -11 c0 -3 -7 -20
-14 -39 -14 -32 -19 -35 -55 -35 -23 0 -41 2 -41 5 0 3 9 23 19 43 18 35 22
38 55 34 20 -2 36 -6 36 -8z m2890 11 c0 -3 -12 -24 -26 -46 l-25 -41 -62 7
c-34 4 -93 14 -132 22 l-70 16 60 14 c99 23 255 40 255 28z m437 -29 l58 -13
-70 -16 c-80 -18 -225 -33 -225 -23 0 4 9 24 19 45 l20 38 70 -9 c38 -4 96
-14 128 -22z m2763 29 c0 -3 -12 -24 -26 -46 l-25 -41 -62 7 c-34 4 -93 14
-132 22 l-70 16 60 14 c99 23 255 40 255 28z m437 -29 l58 -13 -70 -16 c-80
-18 -225 -33 -225 -23 0 4 9 24 19 45 l20 38 70 -9 c38 -4 96 -14 128 -22z
m-8347 -51 c113 0 266 2 340 5 74 2 227 1 340 -4 144 -6 237 -5 312 3 101 11
115 10 225 -13 65 -13 140 -27 166 -31 31 -4 47 -11 44 -18 -3 -7 -32 -59 -65
-117 -34 -57 -59 -106 -57 -108 2 -3 20 6 39 17 45 28 109 101 144 163 l27 47
55 -4 c30 -2 58 -4 61 -5 4 0 10 -21 14 -47 4 -27 20 -69 36 -95 26 -43 27
-48 10 -48 -23 0 -71 -47 -71 -70 0 -38 23 -138 42 -182 16 -38 19 -59 14
-102 l-7 -54 -47 4 c-26 2 -50 3 -54 4 -3 0 -9 23 -13 51 -6 45 -38 107 -89
174 -15 19 -15 19 -15 -10 -1 -16 6 -70 14 -120 20 -122 22 -115 -32 -115 -27
0 -115 -14 -197 -30 -139 -29 -153 -30 -235 -19 -52 7 -170 10 -303 7 l-218
-4 24 40 c100 172 126 241 126 327 0 50 -3 60 -26 78 -35 28 -47 27 -88 -9
-24 -21 -61 -84 -120 -203 -94 -189 -131 -242 -159 -231 -22 8 -18 34 30 188
18 60 38 139 44 175 26 164 -44 279 -126 208 -22 -19 -32 -48 -65 -187 -41
-176 -93 -336 -115 -359 -11 -11 -17 -12 -28 -2 -21 17 -26 54 -38 252 -11
206 -23 260 -61 273 -39 14 -75 0 -95 -37 -16 -28 -18 -61 -18 -272 l0 -240
-32 -3 c-41 -4 -66 28 -132 171 -53 113 -80 141 -128 135 -59 -7 -54 -113 11
-239 l34 -65 -226 4 c-125 2 -228 5 -230 7 -7 6 20 200 38 270 19 76 33 185
46 358 l6 77 116 1 c65 1 151 5 192 9 41 4 134 5 205 1 72 -3 222 -6 335 -6z
m3200 0 c113 0 266 2 340 5 74 3 225 1 335 -4 142 -6 234 -5 315 3 105 11 123
10 200 -8 47 -10 119 -24 160 -30 41 -7 76 -13 78 -16 2 -2 -26 -54 -62 -116
-35 -63 -63 -115 -61 -117 2 -3 20 6 39 17 45 28 109 101 144 163 l27 47 55
-4 c30 -2 58 -4 61 -5 4 0 10 -21 14 -47 6 -41 75 -176 97 -189 11 -7 10 40
-1 107 -5 30 -12 75 -16 100 l-6 46 69 6 c60 6 207 33 286 53 l26 6 0 -83 c0
-123 17 -259 45 -373 14 -56 28 -142 32 -193 l6 -92 -34 -6 c-22 -4 -89 5
-184 24 -82 17 -161 31 -174 31 -29 0 -28 2 44 126 56 97 63 114 45 114 -21 0
-137 -122 -165 -174 l-30 -55 -55 4 c-30 2 -58 4 -62 5 -4 0 -10 25 -13 55 -4
30 -11 58 -16 60 -4 3 -22 30 -38 59 -26 45 -31 64 -31 119 0 59 -3 68 -26 86
-35 28 -47 27 -88 -9 -24 -21 -61 -84 -120 -203 -92 -182 -141 -255 -169 -244
-14 5 -14 11 -1 64 9 32 28 99 44 148 42 133 55 231 40 294 -13 57 -49 101
-80 101 -37 0 -75 -49 -89 -115 -45 -211 -109 -424 -137 -454 -10 -11 -16 -12
-27 -2 -21 17 -25 44 -37 241 -13 218 -25 271 -62 284 -39 14 -80 -3 -98 -39
-12 -24 -15 -74 -14 -267 l1 -236 -31 -5 c-44 -7 -59 11 -129 151 -34 68 -71
131 -83 139 -35 22 -77 13 -88 -20 -14 -40 9 -140 50 -213 19 -33 34 -63 34
-65 0 -3 -33 -2 -72 2 -115 12 -460 10 -605 -3 -73 -6 -136 -8 -140 -4 -4 4 9
37 29 74 66 121 72 242 14 242 -52 0 -72 -20 -117 -113 -24 -51 -57 -113 -72
-139 -27 -44 -32 -48 -69 -48 l-39 0 6 208 c7 236 21 491 27 497 12 12 231 22
343 17 72 -4 222 -7 335 -7z m3200 0 c113 0 266 2 340 5 74 3 225 1 335 -4
142 -6 234 -5 315 3 105 11 123 10 200 -8 47 -10 119 -24 160 -30 41 -7 76
-14 78 -16 2 -2 -7 -22 -20 -44 -20 -36 -26 -40 -50 -35 -39 8 -67 -12 -90
-64 -29 -65 -20 -161 32 -332 22 -74 40 -140 40 -146 0 -7 -12 -15 -26 -18
-34 -9 -35 -7 -144 206 -115 225 -153 260 -214 203 -30 -28 -32 -53 -11 -143
15 -65 52 -146 112 -245 19 -32 33 -60 31 -63 -3 -2 -43 1 -89 7 -57 8 -157 9
-309 4 -124 -4 -252 -8 -285 -8 -80 -1 -345 15 -345 21 0 2 22 43 49 91 61
107 91 194 91 265 0 47 -4 57 -26 75 -35 28 -47 27 -89 -10 -24 -21 -59 -79
-111 -183 -101 -203 -129 -246 -161 -246 -23 0 -25 3 -19 35 4 19 22 86 41
148 19 61 39 143 45 181 34 220 -116 319 -169 111 l-17 -69 -18 84 c-10 47
-29 120 -41 162 l-23 78 92 -8 c50 -4 183 -7 296 -7z m2092 -147 c4 -84 14
-180 21 -214 l13 -60 -23 4 c-53 10 -76 -13 -139 -141 -63 -129 -69 -134 -130
-122 -30 5 -34 9 -34 38 0 19 18 63 45 111 59 104 59 117 0 72 l-32 -25 -5
117 c-6 127 -23 186 -57 197 -15 4 -21 15 -21 34 0 16 -3 42 -6 58 l-6 30 74
7 c40 4 120 17 178 29 58 13 107 22 109 20 2 -2 8 -72 13 -155z m-6712 95 c0
-5 -9 -39 -19 -78 -19 -76 -21 -74 -36 38 l-6 47 30 0 c17 0 31 -3 31 -7z
m6251 -13 c14 -1 28 -127 18 -160 -5 -19 -14 -109 -19 -200 -10 -175 -17 -221
-33 -232 -22 -14 -36 6 -43 58 -3 30 -10 57 -15 60 -26 15 -78 139 -98 230
l-23 101 46 68 c25 38 46 72 46 77 0 4 26 6 58 3 31 -2 60 -4 63 -5z m-3362
-519 c6 -46 10 -85 9 -86 -2 -1 -33 -5 -70 -7 l-67 -6 30 52 c17 28 40 72 52
99 11 26 24 44 28 40 4 -5 12 -46 18 -92z m3884 52 c3 -21 9 -73 13 -115 l7
-77 -27 -7 c-25 -6 -96 2 -96 11 0 2 18 38 40 80 24 46 40 90 40 110 0 47 16
45 23 -2z m-10263 -188 c0 -2 -8 -20 -17 -40 -14 -30 -21 -35 -52 -35 -56 0
-214 31 -204 41 18 18 273 51 273 34z m3200 0 c0 -2 -8 -20 -17 -40 -14 -30
-21 -35 -52 -35 -56 0 -214 31 -204 41 18 18 273 51 273 34z m3200 0 c0 -2 -8
-21 -17 -41 l-18 -37 -74 7 c-42 3 -79 10 -83 14 -14 14 22 51 55 55 49 6 137
8 137 2z m395 -11 c50 -8 94 -19 98 -23 5 -5 -31 -16 -80 -24 -108 -19 -213
-30 -213 -22 0 3 11 23 25 45 29 47 36 48 170 24z m3163 6 c12 0 11 -5 -8 -25
-27 -28 -40 -24 -40 12 0 19 4 24 16 19 9 -3 23 -6 32 -6z m-493 -10 c3 -5 -1
-10 -9 -10 -9 0 -16 5 -16 10 0 6 4 10 9 10 6 0 13 -4 16 -10z m-6510 -75 c66
-13 135 -25 153 -25 17 0 32 -3 31 -7 0 -5 -17 -42 -37 -83 -32 -66 -41 -76
-69 -81 -44 -9 -63 -26 -63 -58 0 -36 30 -63 127 -114 43 -23 115 -69 161
-102 l83 -60 -4 -83 c-3 -67 -7 -85 -23 -97 -28 -21 -36 -15 -54 51 -26 92
-99 219 -116 201 -4 -4 5 -58 21 -120 15 -61 31 -126 35 -143 l7 -32 -101 -11
c-55 -7 -148 -23 -206 -36 -58 -13 -106 -22 -108 -21 -1 2 9 27 22 57 30 66
40 118 32 163 -8 42 -34 53 -78 35 -25 -10 -40 -32 -85 -127 -55 -113 -56
-114 -85 -108 -17 3 -42 6 -57 6 l-26 0 2 197 2 198 81 43 c88 47 116 78 106
117 -9 34 -41 48 -108 48 -64 -1 -113 -20 -280 -114 -58 -32 -115 -59 -125
-59 -30 0 -70 50 -84 103 -15 62 -7 157 21 228 l21 55 262 -4 c148 -2 286 1
317 6 63 12 63 12 225 -23z m2012 20 c281 1 323 -1 329 -15 14 -36 16 -185 3
-273 -17 -109 -17 -236 0 -332 10 -61 9 -79 -7 -140 l-18 -70 -45 2 c-156 7
-577 4 -644 -4 -44 -6 -94 -8 -111 -6 -30 5 -32 8 -49 80 -15 63 -16 85 -6
143 14 87 14 241 0 311 -13 64 -14 232 -1 274 11 38 39 45 147 36 44 -3 225
-6 402 -6z m2110 5 c13 0 14 -17 8 -112 -3 -62 -2 -201 4 -308 l10 -195 -57
-110 c-55 -106 -58 -110 -87 -106 -42 4 -45 8 -35 39 69 229 85 310 74 379
-13 90 -73 136 -129 99 -19 -13 -29 -41 -59 -168 -58 -245 -80 -308 -107 -308
-11 0 -19 2 -19 5 0 2 20 50 45 107 25 56 44 106 42 111 -2 6 -35 -21 -74 -59
l-71 -69 -6 125 c-3 69 -9 135 -12 147 -5 18 2 26 46 48 63 32 100 67 100 95
0 27 -35 60 -64 60 -31 0 -34 6 -56 91 l-18 68 57 6 c67 6 268 43 308 55 15 5
41 7 57 5 16 -3 35 -5 43 -5z m1798 -5 c132 0 265 2 295 5 l55 5 23 -47 c35
-71 48 -163 33 -232 -14 -62 -52 -116 -82 -116 -10 0 -85 36 -166 79 -83 44
-170 84 -198 90 -57 11 -119 1 -143 -23 -14 -13 -17 -14 -26 0 -18 24 -89 36
-142 24 -25 -6 -76 -26 -114 -45 -38 -19 -84 -35 -102 -35 -25 0 -41 -9 -74
-45 -48 -53 -82 -59 -118 -20 -50 54 -60 176 -23 285 l22 65 179 7 c98 4 181
10 184 13 3 3 40 2 81 -2 42 -5 184 -8 316 -8z m1371 9 l29 -5 0 -202 c0 -111
4 -299 8 -418 l9 -217 -39 -4 c-21 -3 -52 -1 -70 4 -55 15 -63 71 -48 326 5
84 4 148 -5 200 -14 85 -16 197 -5 260 6 36 10 41 43 50 49 13 45 13 78 6z
m-8987 -41 c14 -49 14 -205 0 -263 -15 -61 -15 -240 0 -325 11 -61 10 -79 -6
-140 l-18 -70 -110 5 c-60 3 -168 4 -239 4 l-129 -1 7 111 c3 61 9 245 13 408
l6 298 201 3 c111 1 215 3 233 5 29 2 33 -1 42 -35z m5016 -9 c36 -4 65 -8 65
-9 0 -1 -20 -46 -45 -101 -25 -54 -45 -105 -45 -112 0 -7 31 15 68 49 50 44
74 75 87 110 20 51 39 63 48 29 7 -26 35 -36 59 -21 26 16 30 11 49 -60 l16
-59 -56 -25 c-31 -15 -104 -53 -163 -86 -58 -32 -115 -59 -126 -59 -28 0 -67
43 -80 88 -17 55 -15 139 4 203 20 67 23 72 40 65 8 -3 43 -8 79 -12z m-3022
-34 c7 -26 35 -36 60 -21 33 21 42 -1 42 -109 0 -54 -3 -101 -6 -104 -3 -4
-44 13 -90 38 -46 24 -97 47 -113 50 l-29 7 35 29 c23 19 43 48 54 80 19 52
38 64 47 30z m5436 -234 c9 -11 6 -15 -13 -18 -21 -4 -23 -3 -13 14 14 22 12
21 26 4z m-73 -68 c-7 -22 -20 -161 -32 -349 -3 -47 -9 -90 -12 -96 -4 -5 -19
-13 -34 -17 -27 -6 -27 -5 -66 116 -22 68 -45 149 -52 182 -11 56 -11 60 12
82 23 23 163 103 182 104 4 0 5 -10 2 -22z m200 -15 c33 -17 107 -67 165 -109
57 -43 147 -107 199 -141 52 -34 112 -75 133 -90 21 -15 57 -35 79 -44 l40
-16 -114 -24 c-100 -22 -123 -24 -191 -15 -64 8 -76 13 -71 26 45 102 55 181
27 212 -19 21 -32 22 -69 6 -21 -10 -40 -38 -76 -116 -27 -57 -54 -105 -61
-107 -7 -2 -34 -6 -61 -7 l-49 -3 -1 210 c-1 156 -4 216 -14 234 -8 13 -10 22
-5 20 4 -2 35 -18 69 -36z m-2376 -170 l-1 -48 -19 35 c-13 25 -15 39 -8 48
19 23 28 12 28 -35z m-4107 -198 c-8 -60 -8 -60 -43 -63 l-36 -3 -28 86 c-15
48 -26 89 -23 91 2 2 33 25 68 49 l64 45 3 -73 c1 -39 -1 -99 -5 -132z m4028
178 c0 -5 10 -48 23 -98 l23 -90 -46 -7 c-25 -4 -48 -4 -51 0 -3 4 -19 36 -35
70 -25 54 -27 65 -15 72 8 5 31 20 50 34 37 26 50 31 51 19z m1939 -235 c0 -5
-15 -8 -33 -8 -40 0 -54 14 -96 97 l-30 61 47 31 47 31 32 -103 c18 -56 33
-105 33 -109z m-2162 49 c7 -18 12 -36 12 -39 0 -9 -144 -32 -180 -29 -69 6
-67 18 6 40 38 12 83 30 99 41 42 26 49 25 63 -13z m-4093 -28 c4 -17 4 -33 1
-36 -10 -11 -74 8 -80 24 -4 9 -5 17 -4 17 54 32 75 30 83 -5z m5955 2 c16
-31 13 -32 -42 -29 -60 4 -74 23 -26 37 49 14 56 13 68 -8z m-8049 -104 c-5
-5 -21 -7 -35 -3 -22 5 -26 12 -26 41 0 31 3 34 33 37 30 3 32 1 35 -31 2 -18
-1 -38 -7 -44z m3269 78 c0 -17 -55 -85 -69 -85 -32 0 -204 31 -219 39 -11 6
0 12 40 20 105 22 248 37 248 26z m3198 -2 c-23 -48 -32 -63 -38 -63 -13 0
-41 50 -35 60 7 12 78 14 73 3z m278 -20 c-3 -8 -6 -17 -6 -19 0 -2 -9 -4 -20
-4 -19 0 -28 28 -14 42 11 12 45 -5 40 -19z m2858 -4 c29 -23 34 -47 11 -55
-17 -7 -210 22 -233 35 -11 6 -1 12 39 19 30 6 63 13 74 15 47 11 84 6 109
-14z m-3367 -14 c8 -22 3 -23 -37 -12 -31 8 -33 10 -15 18 31 12 45 10 52 -6z
m-4119 -43 c2 -7 -2 -10 -12 -6 -9 3 -16 11 -16 16 0 13 23 5 28 -10z m834 -1
c46 -11 117 -24 158 -30 41 -7 76 -13 78 -16 2 -2 -26 -54 -62 -116 -35 -63
-63 -115 -61 -117 2 -3 20 6 39 17 46 29 108 100 147 168 29 50 50 65 64 43 3
-5 20 -10 36 -10 28 0 30 -2 25 -32 -3 -18 -8 -150 -12 -293 -3 -143 -8 -263
-10 -267 -12 -20 -33 9 -39 53 -6 45 -38 107 -89 174 -15 19 -15 19 -15 -10
-1 -16 6 -70 14 -120 8 -49 15 -95 15 -101 0 -7 -31 -14 -74 -17 -41 -4 -128
-18 -192 -32 -128 -28 -211 -27 -200 2 19 48 26 203 14 293 -19 141 -17 303 5
373 16 52 20 57 47 57 16 0 67 -9 112 -19z m1933 3 c127 -3 272 -2 323 3 50 5
92 6 92 2 0 -4 -43 -109 -95 -234 -52 -124 -114 -284 -137 -356 l-43 -129
-117 0 -117 0 -25 83 c-24 77 -80 222 -200 514 -25 62 -46 118 -46 124 0 8 21
10 68 5 37 -3 171 -8 297 -12z m1285 -7 l95 -22 12 -45 c16 -64 16 -146 -2
-180 -14 -27 -14 -30 1 -30 12 0 15 -6 10 -22 -17 -65 -26 -209 -17 -288 5
-47 7 -88 3 -91 -4 -3 -54 -16 -112 -28 -90 -18 -116 -20 -180 -11 -41 5 -108
10 -147 10 l-73 0 0 53 c0 85 20 286 36 367 17 87 72 271 84 284 9 9 99 23
160 24 19 1 78 -9 130 -21z m3182 4 c46 -11 117 -24 158 -30 41 -7 76 -14 78
-16 2 -2 -25 -55 -61 -117 -36 -62 -64 -114 -62 -116 7 -7 69 35 102 70 17 18
47 57 67 87 l35 54 10 -26 c19 -50 40 -132 56 -217 21 -117 35 -322 23 -337
-18 -22 -36 -2 -43 48 -6 45 -38 107 -89 174 -15 19 -15 19 -16 -11 0 -17 4
-55 9 -85 5 -30 12 -75 16 -100 l6 -46 -75 -6 c-41 -4 -126 -18 -189 -31 -109
-24 -121 -25 -231 -14 l-117 12 8 71 c11 101 9 197 -6 297 -15 95 -11 228 9
295 l13 42 66 6 c36 4 71 8 76 10 25 9 81 4 157 -14z m974 13 c20 -5 21 -14
27 -157 3 -84 4 -153 3 -154 -4 -4 -126 292 -126 305 0 13 57 16 96 6z m-9066
-8 c0 -5 -61 -154 -124 -301 -30 -71 -77 -194 -103 -272 l-48 -142 -102 -3
-103 -3 0 45 c0 25 5 186 12 357 l12 313 180 3 c100 1 202 3 229 5 26 1 47 0
47 -2z m632 -67 c48 -97 61 -214 34 -292 -33 -92 -79 -100 -184 -32 -5 4 30
172 50 240 30 102 49 146 62 142 6 -1 23 -28 38 -58z m708 46 c-7 -8 -16 -15
-21 -15 -5 0 -9 7 -9 15 0 9 9 15 21 15 18 0 19 -2 9 -15z m5526 -9 c55 -85
79 -245 50 -329 -30 -83 -72 -96 -155 -50 l-48 27 -7 96 c-3 52 -6 137 -6 188
l0 92 75 0 c68 0 76 -2 91 -24z m734 21 c0 -2 -8 -12 -19 -21 -17 -16 -19 -16
-24 4 -4 16 0 20 19 20 13 0 24 -2 24 -3z m-1715 -194 l-26 -58 6 52 c3 28 11
66 17 84 l12 33 8 -26 c7 -20 3 -40 -17 -85z m-5331 -485 l39 -28 -66 0 -67 0
0 46 0 46 28 -18 c15 -10 45 -30 66 -46z m6233 12 l56 -40 -61 0 -62 0 0 40
c0 22 3 40 6 40 3 0 31 -18 61 -40z m-4797 -45 c0 -2 -8 -20 -17 -40 -14 -30
-21 -35 -52 -35 -55 0 -214 31 -204 40 19 18 273 51 273 35z m6400 0 c0 -2 -8
-20 -17 -40 -14 -30 -21 -35 -52 -35 -55 0 -214 31 -204 40 19 18 273 51 273
35z m-3360 -22 c0 -38 -12 -43 -70 -29 -57 13 -55 17 15 34 56 14 55 14 55 -5z
m-3334 -57 c60 -14 137 -28 172 -32 34 -3 62 -8 62 -9 0 -1 -20 -46 -45 -101
-25 -54 -45 -105 -45 -112 0 -7 31 15 70 49 52 47 73 74 87 111 18 51 37 62
46 27 3 -11 15 -23 27 -26 22 -6 22 -8 16 -152 -3 -80 -9 -222 -12 -316 l-7
-170 -17 60 c-26 94 -98 220 -116 202 -4 -4 8 -71 28 -150 l35 -142 -86 -11
c-47 -6 -89 -9 -92 -5 -3 3 -20 47 -37 97 -17 50 -69 181 -116 291 -67 160
-146 374 -146 397 0 3 12 7 28 9 15 2 30 5 33 6 4 0 55 -10 115 -23z m3199 0
c59 -14 109 -26 111 -29 8 -7 -51 -167 -131 -357 -43 -102 -97 -239 -121 -305
l-42 -120 -139 3 c-89 3 -141 8 -146 15 -4 7 -6 98 -4 202 4 162 8 205 30 288
14 54 28 128 32 165 3 37 8 84 11 105 l6 37 91 1 c76 0 126 5 188 18 4 0 55
-10 114 -23z m3201 0 c60 -14 137 -28 172 -32 34 -3 62 -8 62 -9 0 -1 -20 -46
-45 -101 -25 -54 -45 -105 -45 -112 0 -7 31 15 68 49 50 44 74 75 87 110 21
54 35 61 50 27 8 -18 18 -23 43 -22 30 2 32 0 32 -30 0 -17 10 -74 21 -126 12
-52 27 -129 34 -170 14 -78 18 -287 6 -329 l-7 -24 -17 26 c-19 29 -45 35 -65
15 -17 -17 -27 -2 -41 56 -20 82 -100 221 -117 203 -4 -4 8 -71 28 -150 l35
-142 -96 -12 c-53 -7 -124 -19 -159 -27 -47 -11 -64 -11 -67 -3 -40 119 -108
295 -160 418 -73 168 -135 340 -135 370 0 16 8 19 53 20 42 0 93 6 148 18 4 0
55 -10 115 -23z m-8396 -8 c0 -7 -11 -65 -25 -128 -29 -138 -61 -376 -70 -515
-10 -171 -7 -163 -70 -167 l-55 -3 0 50 c0 28 7 194 15 370 8 176 15 339 15
363 l0 42 95 0 c69 0 95 -3 95 -12z m1048 -7 c20 -10 68 -28 105 -41 97 -32
125 -63 165 -186 18 -54 41 -139 52 -189 20 -95 47 -371 37 -381 -10 -10 -306
-10 -519 0 l-197 9 -7 44 c-3 24 -4 112 -1 196 3 118 10 175 31 257 20 82 44
242 46 303 0 4 56 7 125 7 103 0 133 -3 163 -19z m2992 11 c0 -4 -11 -62 -25
-129 -14 -68 -32 -178 -41 -245 -9 -68 -18 -134 -22 -148 l-6 -25 -3 25 c-27
207 -39 283 -58 380 -13 63 -27 123 -30 133 -7 15 2 17 89 17 53 0 96 -3 96
-8z m3258 -11 c20 -10 68 -28 105 -41 95 -31 124 -63 164 -180 17 -52 41 -140
52 -195 22 -106 48 -381 38 -392 -4 -3 -116 0 -249 7 -134 7 -268 11 -299 8
l-57 -4 -6 90 c-3 50 -8 192 -11 316 -3 124 -8 267 -11 318 l-6 92 121 0 c99
0 129 -4 159 -19z m-1341 -66 c-24 -60 -74 -409 -85 -587 l-7 -113 -40 3 c-22
2 -43 7 -47 10 -3 4 14 52 38 106 25 55 43 103 42 108 -2 5 -30 -15 -62 -44
l-59 -52 7 59 c18 147 69 347 114 443 20 45 115 109 99 67z m-2780 -568 c-3
-82 -8 -151 -11 -155 -15 -15 -17 20 -10 190 6 143 9 175 17 148 5 -19 7 -101
4 -183z m-867 -162 c0 -17 -55 -85 -69 -85 -56 0 -93 14 -102 38 -5 14 -7 27
-4 30 12 13 175 28 175 17z m3538 -11 c6 -2 12 -16 12 -32 0 -27 -3 -30 -46
-36 -78 -10 -84 -9 -84 20 0 49 15 63 62 57 24 -2 49 -6 56 -9z m2862 11 c0
-17 -55 -85 -69 -85 -28 0 -197 29 -221 38 -18 7 -2 12 71 25 147 26 219 33
219 22z m-6482 -130 c2 -2 -7 -22 -21 -45 l-24 -41 -12 45 c-6 25 -11 48 -11
51 0 6 61 -3 68 -10z"/>
</g>
</svg>
